<svg width="26" height="25" viewBox="0 0 26 25" fill="none" xmlns="http://www.w3.org/2000/svg">
<g clip-path="url(#clip0)">
<path fill-rule="evenodd" clip-rule="evenodd" d="M20.29 0.532227C20.6946 0.532227 21.0225 0.846985 21.0225 1.23535V10.5648C23.5793 11.7927 25.2705 14.3137 25.2705 17.1611C25.2705 21.2319 21.8327 24.5322 17.5923 24.5322C14.6262 24.5322 12.0001 22.9086 10.7211 20.4541H1.00293C0.598381 20.4541 0.270508 20.1393 0.270508 19.751V1.23535C0.270508 0.846985 0.598381 0.532227 1.00293 0.532227H20.29ZM14.1377 1.93848V5.87891C14.1377 6.38446 13.5758 6.77356 13.027 6.48096L10.6465 5.3197L8.21671 6.50513C7.729 6.74225 7.15661 6.39618 7.15699 5.87891L7.15527 1.93848H1.73535V19.0479H10.1681C9.45916 16.4708 10.2564 13.7794 12.163 11.949C14.0696 10.1187 16.8732 9.35333 19.5576 10.0339V1.93848H14.1377ZM15.2607 20.2666H18.6785C19.459 20.2666 20.1672 19.9614 20.6799 19.469C21.2189 18.9517 21.5107 18.2816 21.5107 17.5012C21.5107 16.0026 20.2395 14.7822 18.6785 14.7822H16.6432L17.0731 14.3688C17.7504 13.7147 16.7147 12.7261 16.0374 13.38L14.3576 14.9955C14.0732 15.27 14.0744 15.7141 14.3605 15.9871L16.0435 17.5997C16.7246 18.2499 17.7546 17.2556 17.0735 16.6054L16.6382 16.1885H18.6785C19.4716 16.1885 20.0459 16.7971 20.0459 17.5477C20.0459 18.2698 19.4308 18.8604 18.6785 18.8604H15.2607C14.8562 18.8604 14.5283 19.1751 14.5283 19.5635C14.5283 19.9518 14.8562 20.2666 15.2607 20.2666V20.2666ZM13.1987 12.9433C10.7724 15.2728 10.7724 19.0497 13.1987 21.379C15.6252 23.7084 19.5595 23.7084 21.9859 21.379C24.4124 19.0497 24.4124 15.2728 21.9859 12.9433C19.5595 10.614 15.625 10.614 13.1987 12.9433ZM12.6729 1.93848H8.62012V4.73486L10.3158 3.90759C10.5158 3.81018 10.7598 3.80231 10.9755 3.90668L12.6729 4.73486V1.93848Z" fill="#F46E20"/>
</g>
<defs>
<clipPath id="clip0">
<rect width="25" height="24" fill="white" transform="translate(0.270508 0.532227)"/>
</clipPath>
</defs>
</svg>
