<svg width="29" height="29" viewBox="0 0 29 29" fill="none" xmlns="http://www.w3.org/2000/svg">
<g clip-path="url(#clip0)">
<path d="M20.3762 9.30664H9.91642C9.68529 9.30664 9.46362 9.39846 9.30018 9.5619C9.13674 9.72533 9.04492 9.947 9.04492 10.1781V20.6361C9.04492 21.1174 9.43517 21.5076 9.91642 21.5076H20.3762C20.6073 21.5076 20.829 21.4158 20.9924 21.2524C21.1559 21.0889 21.2477 20.8673 21.2477 20.6361V10.1781C21.2477 9.947 21.1559 9.72533 20.9924 9.5619C20.829 9.39846 20.6073 9.30664 20.3762 9.30664V9.30664ZM14.2739 11.0496H16.0204V12.7926H14.2757V11.0496H14.2739ZM19.5047 19.7646H10.7879V11.0496H12.5292V13.6641C12.5292 14.1454 12.9194 14.5356 13.4007 14.5356H16.8884C17.0029 14.5356 17.1162 14.5131 17.2219 14.4693C17.3277 14.4255 17.4237 14.3613 17.5047 14.2804C17.5856 14.1995 17.6498 14.1034 17.6936 13.9976C17.7374 13.8919 17.7599 13.7786 17.7599 13.6641V11.0496H19.5029V19.7646H19.5047Z" fill="#F46E20"/>
<path d="M29.1482 14.5361H26.4427C26.2314 11.8418 25.0656 9.31126 23.1548 7.3999C21.2441 5.48854 18.714 4.3218 16.0197 4.10961V1.40411C16.0197 1.17275 15.9278 0.950853 15.7642 0.787251C15.6006 0.623649 15.3787 0.531738 15.1474 0.531738C14.916 0.531738 14.6941 0.623649 14.5305 0.787251C14.3669 0.950853 14.275 1.17275 14.275 1.40411V4.10961C11.5804 4.3214 9.04987 5.48797 7.13879 7.39937C5.22771 9.31076 4.06157 11.8415 3.85023 14.5361H1.14298C0.911848 14.5361 0.690179 14.6279 0.526741 14.7914C0.363303 14.9548 0.271484 15.1765 0.271484 15.4076C0.271484 15.6387 0.363303 15.8604 0.526741 16.0239C0.690179 16.1873 0.911848 16.2791 1.14298 16.2791H3.84848C4.05982 18.9737 5.22596 21.5045 7.13704 23.4159C9.04812 25.3273 11.5786 26.4938 14.2732 26.7056V29.4111C14.2732 29.6425 14.3651 29.8644 14.5287 30.028C14.6923 30.1916 14.9142 30.2835 15.1456 30.2835C15.377 30.2835 15.5989 30.1916 15.7625 30.028C15.9261 29.8644 16.018 29.6425 16.018 29.4111V26.7056C18.7126 26.4938 21.2431 25.3273 23.1542 23.4159C25.0653 21.5045 26.2314 18.9737 26.4427 16.2791H29.1482C29.3794 16.2791 29.601 16.1873 29.7645 16.0239C29.9279 15.8604 30.0197 15.6387 30.0197 15.4076C30.0197 15.1765 29.9279 14.9548 29.7645 14.7914C29.601 14.6279 29.3794 14.5361 29.1482 14.5361V14.5361ZM16.0197 24.9556V24.1226C16.0197 23.8912 15.9278 23.6694 15.7642 23.5058C15.6006 23.3421 15.3787 23.2502 15.1474 23.2502C14.916 23.2502 14.6941 23.3421 14.5305 23.5058C14.3669 23.6694 14.275 23.8912 14.275 24.1226V24.9556C12.044 24.7484 9.95568 23.7676 8.37151 22.1831C6.78733 20.5987 5.80701 18.5101 5.60023 16.2791H6.43148C6.66262 16.2791 6.88429 16.1873 7.04773 16.0239C7.21117 15.8604 7.30298 15.6387 7.30298 15.4076C7.30298 15.1765 7.21117 14.9548 7.04773 14.7914C6.88429 14.6279 6.66262 14.5361 6.43148 14.5361H5.60023C5.80701 12.3051 6.78733 10.2166 8.37151 8.63208C9.95568 7.04759 12.044 6.06684 14.275 5.85961V6.69261C14.275 6.92398 14.3669 7.14587 14.5305 7.30948C14.6941 7.47308 14.916 7.56499 15.1474 7.56499C15.3787 7.56499 15.6006 7.47308 15.7642 7.30948C15.9278 7.14587 16.0197 6.92398 16.0197 6.69261V5.85961C18.2508 6.06651 20.3393 7.04715 21.9236 8.63171C23.5078 10.2163 24.488 12.305 24.6945 14.5361H23.8632C23.6321 14.5361 23.4104 14.6279 23.247 14.7914C23.0836 14.9548 22.9917 15.1765 22.9917 15.4076C22.9917 15.6387 23.0836 15.8604 23.247 16.0239C23.4104 16.1873 23.6321 16.2791 23.8632 16.2791H24.6945C24.4877 18.5101 23.5074 20.5987 21.9232 22.1831C20.339 23.7676 18.2507 24.7484 16.0197 24.9556ZM2.94373 7.56411C3.05818 7.56411 3.17151 7.54157 3.27724 7.49777C3.38298 7.45398 3.47905 7.38978 3.55998 7.30886C3.6409 7.22793 3.7051 7.13186 3.7489 7.02612C3.79269 6.92039 3.81523 6.80706 3.81523 6.69261V4.07636H6.42973C6.66087 4.07636 6.88254 3.98454 7.04598 3.82111C7.20942 3.65767 7.30123 3.436 7.30123 3.20486C7.30123 2.97373 7.20942 2.75206 7.04598 2.58862C6.88254 2.42518 6.66087 2.33336 6.42973 2.33336H2.94373C2.7126 2.33336 2.49093 2.42518 2.32749 2.58862C2.16405 2.75206 2.07223 2.97373 2.07223 3.20486V6.69261C2.07223 7.17386 2.46248 7.56411 2.94373 7.56411ZM6.42973 26.7389H3.81523V24.1226C3.81523 23.8915 3.72342 23.6698 3.55998 23.5064C3.39654 23.3429 3.17487 23.2511 2.94373 23.2511C2.7126 23.2511 2.49093 23.3429 2.32749 23.5064C2.16405 23.6698 2.07223 23.8915 2.07223 24.1226V27.6104C2.07223 28.0916 2.46248 28.4819 2.94373 28.4819H6.42973C6.66087 28.4819 6.88254 28.39 7.04598 28.2266C7.20942 28.0632 7.30123 27.8415 7.30123 27.6104C7.30123 27.3792 7.20942 27.1576 7.04598 26.9941C6.88254 26.8307 6.66087 26.7389 6.42973 26.7389V26.7389ZM27.3475 23.2511C27.1163 23.2511 26.8947 23.3429 26.7312 23.5064C26.5678 23.6698 26.476 23.8915 26.476 24.1226V26.7389H23.8615C23.6303 26.7389 23.4087 26.8307 23.2452 26.9941C23.0818 27.1576 22.99 27.3792 22.99 27.6104C22.99 27.8415 23.0818 28.0632 23.2452 28.2266C23.4087 28.39 23.6303 28.4819 23.8615 28.4819H27.3475C27.5786 28.4819 27.8003 28.39 27.9637 28.2266C28.1272 28.0632 28.219 27.8415 28.219 27.6104V24.1226C28.219 23.8915 28.1272 23.6698 27.9637 23.5064C27.8003 23.3429 27.5786 23.2511 27.3475 23.2511V23.2511ZM23.8615 4.07636H26.476V6.69261C26.476 6.92375 26.5678 7.14542 26.7312 7.30886C26.8947 7.47229 27.1163 7.56411 27.3475 7.56411C27.5786 7.56411 27.8003 7.47229 27.9637 7.30886C28.1272 7.14542 28.219 6.92375 28.219 6.69261V3.20486C28.219 2.97373 28.1272 2.75206 27.9637 2.58862C27.8003 2.42518 27.5786 2.33336 27.3475 2.33336H23.8615C23.6303 2.33336 23.4087 2.42518 23.2452 2.58862C23.0818 2.75206 22.99 2.97373 22.99 3.20486C22.99 3.436 23.0818 3.65767 23.2452 3.82111C23.4087 3.98454 23.6303 4.07636 23.8615 4.07636V4.07636Z" fill="#F46E20"/>
</g>
<defs>
<clipPath id="clip0">
<rect width="28" height="28" fill="white" transform="translate(0.270508 0.532227)"/>
</clipPath>
</defs>
</svg>
